<mxfile host="Electron" modified="2022-09-02T19:44:10.396Z" agent="5.0 (Windows NT 10.0; Win64; x64) AppleWebKit/537.36 (KHTML, like Gecko) draw.io/19.0.3 Chrome/102.0.5005.63 Electron/19.0.3 Safari/537.36" etag="J61xA__Cwy0gPvPNKOZo" compressed="false" version="19.0.3" type="device">
  <diagram id="C5RBs43oDa-KdzZeNtuy" name="Page-1">
    <mxGraphModel dx="1422" dy="865" grid="1" gridSize="10" guides="1" tooltips="1" connect="1" arrows="1" fold="1" page="1" pageScale="1" pageWidth="827" pageHeight="1169" math="0" shadow="0">
      <root>
        <mxCell id="WIyWlLk6GJQsqaUBKTNV-0" />
        <mxCell id="WIyWlLk6GJQsqaUBKTNV-1" parent="WIyWlLk6GJQsqaUBKTNV-0" />
        <mxCell id="zkfFHV4jXpPFQw0GAbJ--0" value="class Parent" style="swimlane;fontStyle=1;align=center;verticalAlign=middle;childLayout=stackLayout;horizontal=1;startSize=40;horizontalStack=0;resizeParent=1;resizeLast=0;collapsible=1;marginBottom=0;rounded=0;shadow=0;strokeWidth=1;labelBackgroundColor=none;fillColor=#f8cecc;strokeColor=#b85450;swimlaneFillColor=#FFCCCC;spacing=0;fontSize=22;spacingTop=0;" parent="WIyWlLk6GJQsqaUBKTNV-1" vertex="1">
          <mxGeometry x="480" y="200" width="290" height="380" as="geometry">
            <mxRectangle x="230" y="140" width="160" height="26" as="alternateBounds" />
          </mxGeometry>
        </mxCell>
        <mxCell id="zkfFHV4jXpPFQw0GAbJ--1" value="static Parent fields" style="text;align=left;verticalAlign=middle;spacingLeft=4;spacingRight=4;overflow=hidden;rotatable=0;points=[[0,0.5],[1,0.5]];portConstraint=eastwest;spacing=0;fontSize=22;spacingTop=0;" parent="zkfFHV4jXpPFQw0GAbJ--0" vertex="1">
          <mxGeometry y="40" width="290" height="40" as="geometry" />
        </mxCell>
        <mxCell id="zkfFHV4jXpPFQw0GAbJ--2" value="non-static Parent fields" style="text;align=left;verticalAlign=middle;spacingLeft=4;spacingRight=4;overflow=hidden;rotatable=0;points=[[0,0.5],[1,0.5]];portConstraint=eastwest;rounded=0;shadow=0;html=0;spacing=0;fontSize=22;spacingTop=0;" parent="zkfFHV4jXpPFQw0GAbJ--0" vertex="1">
          <mxGeometry y="80" width="290" height="40" as="geometry" />
        </mxCell>
        <mxCell id="zkfFHV4jXpPFQw0GAbJ--4" value="" style="line;html=1;strokeWidth=1;align=left;verticalAlign=middle;spacingTop=0;spacingLeft=3;spacingRight=3;rotatable=0;labelPosition=right;points=[];portConstraint=eastwest;spacing=0;fontSize=22;perimeterSpacing=0;strokeColor=default;" parent="zkfFHV4jXpPFQw0GAbJ--0" vertex="1">
          <mxGeometry y="120" width="290" height="10" as="geometry" />
        </mxCell>
        <mxCell id="zkfFHV4jXpPFQw0GAbJ--5" value="{&#xa;static Parent blocks&#xa;}" style="text;align=left;verticalAlign=middle;spacingLeft=4;spacingRight=4;overflow=hidden;rotatable=0;points=[[0,0.5],[1,0.5]];portConstraint=eastwest;spacing=0;fontSize=22;spacingTop=0;" parent="zkfFHV4jXpPFQw0GAbJ--0" vertex="1">
          <mxGeometry y="130" width="290" height="100" as="geometry" />
        </mxCell>
        <mxCell id="G63lVBj6vxxuwlLdZVwU-6" value="{&lt;br style=&quot;font-size: 22px;&quot;&gt;non-static Parent blocks&lt;br style=&quot;font-size: 22px;&quot;&gt;}" style="text;html=1;strokeColor=none;fillColor=none;align=left;verticalAlign=middle;whiteSpace=wrap;rounded=0;spacingLeft=4;spacingRight=4;spacingTop=0;spacing=0;fontSize=22;" parent="zkfFHV4jXpPFQw0GAbJ--0" vertex="1">
          <mxGeometry y="230" width="290" height="100" as="geometry" />
        </mxCell>
        <mxCell id="G63lVBj6vxxuwlLdZVwU-7" value="Parent constructor() {}" style="text;html=1;strokeColor=none;fillColor=none;align=left;verticalAlign=middle;whiteSpace=wrap;rounded=0;spacingLeft=4;spacingRight=4;spacing=0;fontSize=22;spacingTop=0;" parent="zkfFHV4jXpPFQw0GAbJ--0" vertex="1">
          <mxGeometry y="330" width="290" height="40" as="geometry" />
        </mxCell>
        <mxCell id="zkfFHV4jXpPFQw0GAbJ--12" value="" style="endArrow=block;endSize=10;endFill=0;shadow=0;strokeWidth=1;rounded=0;edgeStyle=elbowEdgeStyle;elbow=vertical;exitX=0.5;exitY=0;exitDx=0;exitDy=0;spacing=0;fontSize=22;spacingTop=0;verticalAlign=middle;" parent="WIyWlLk6GJQsqaUBKTNV-1" source="G63lVBj6vxxuwlLdZVwU-8" target="zkfFHV4jXpPFQw0GAbJ--0" edge="1">
          <mxGeometry width="160" relative="1" as="geometry">
            <mxPoint x="639" y="370" as="sourcePoint" />
            <mxPoint x="169" y="213" as="targetPoint" />
          </mxGeometry>
        </mxCell>
        <mxCell id="G63lVBj6vxxuwlLdZVwU-8" value="class Child extends Parent" style="swimlane;fontStyle=1;align=center;verticalAlign=middle;childLayout=stackLayout;horizontal=1;startSize=40;horizontalStack=0;resizeParent=1;resizeLast=0;collapsible=1;marginBottom=0;rounded=0;shadow=0;strokeWidth=1;fillColor=#d5e8d4;strokeColor=#82b366;swimlaneFillColor=#D5E8D4;spacing=0;fontSize=22;spacingTop=0;" parent="WIyWlLk6GJQsqaUBKTNV-1" vertex="1">
          <mxGeometry x="480" y="630" width="290" height="370" as="geometry">
            <mxRectangle x="230" y="140" width="160" height="26" as="alternateBounds" />
          </mxGeometry>
        </mxCell>
        <mxCell id="G63lVBj6vxxuwlLdZVwU-9" value="static Child fields" style="text;align=left;verticalAlign=middle;spacingLeft=4;spacingRight=4;overflow=hidden;rotatable=0;points=[[0,0.5],[1,0.5]];portConstraint=eastwest;spacing=0;fontSize=22;spacingTop=0;" parent="G63lVBj6vxxuwlLdZVwU-8" vertex="1">
          <mxGeometry y="40" width="290" height="40" as="geometry" />
        </mxCell>
        <mxCell id="G63lVBj6vxxuwlLdZVwU-10" value="non-static Child fields" style="text;align=left;verticalAlign=middle;spacingLeft=4;spacingRight=4;overflow=hidden;rotatable=0;points=[[0,0.5],[1,0.5]];portConstraint=eastwest;rounded=0;shadow=0;html=0;spacing=0;fontSize=22;spacingTop=0;" parent="G63lVBj6vxxuwlLdZVwU-8" vertex="1">
          <mxGeometry y="80" width="290" height="40" as="geometry" />
        </mxCell>
        <mxCell id="G63lVBj6vxxuwlLdZVwU-11" value="" style="line;html=1;strokeWidth=1;align=left;verticalAlign=middle;spacingTop=0;spacingLeft=3;spacingRight=3;rotatable=0;labelPosition=right;points=[];portConstraint=eastwest;spacing=0;fontSize=22;" parent="G63lVBj6vxxuwlLdZVwU-8" vertex="1">
          <mxGeometry y="120" width="290" height="10" as="geometry" />
        </mxCell>
        <mxCell id="G63lVBj6vxxuwlLdZVwU-12" value="{&#xa;static Child blocks&#xa;}" style="text;align=left;verticalAlign=middle;spacingLeft=4;spacingRight=4;overflow=hidden;rotatable=0;points=[[0,0.5],[1,0.5]];portConstraint=eastwest;spacing=0;fontSize=22;spacingTop=0;" parent="G63lVBj6vxxuwlLdZVwU-8" vertex="1">
          <mxGeometry y="130" width="290" height="100" as="geometry" />
        </mxCell>
        <mxCell id="G63lVBj6vxxuwlLdZVwU-13" value="{&lt;br style=&quot;font-size: 22px;&quot;&gt;non-static Child blocks&lt;br style=&quot;font-size: 22px;&quot;&gt;}" style="text;html=1;strokeColor=none;fillColor=none;align=left;verticalAlign=middle;whiteSpace=wrap;rounded=0;spacingLeft=4;spacingRight=4;spacingTop=0;spacing=0;fontSize=22;" parent="G63lVBj6vxxuwlLdZVwU-8" vertex="1">
          <mxGeometry y="230" width="290" height="100" as="geometry" />
        </mxCell>
        <mxCell id="G63lVBj6vxxuwlLdZVwU-14" value="Child constructor() {}" style="text;html=1;strokeColor=none;fillColor=none;align=left;verticalAlign=middle;whiteSpace=wrap;rounded=0;spacingLeft=4;spacingRight=4;spacing=0;fontSize=22;spacingTop=0;" parent="G63lVBj6vxxuwlLdZVwU-8" vertex="1">
          <mxGeometry y="330" width="290" height="40" as="geometry" />
        </mxCell>
        <mxCell id="uZuDazkK_sFw4VfwLlh1-0" value="&lt;span style=&quot;font-weight: 700;&quot;&gt;Parent object = new Child();&lt;/span&gt;" style="rounded=0;whiteSpace=wrap;html=1;fontSize=22;" parent="WIyWlLk6GJQsqaUBKTNV-1" vertex="1">
          <mxGeometry x="40" y="120" width="360" height="60" as="geometry" />
        </mxCell>
        <mxCell id="uZuDazkK_sFw4VfwLlh1-1" value="" style="swimlane;startSize=0;fontSize=22;swimlaneLine=0;container=0;autosize=0;fillColor=none;strokeColor=none;" parent="WIyWlLk6GJQsqaUBKTNV-1" vertex="1">
          <mxGeometry x="40" y="300" width="200" height="280" as="geometry" />
        </mxCell>
        <mxCell id="G63lVBj6vxxuwlLdZVwU-19" value="static Parent fields" style="text;align=left;verticalAlign=middle;spacingLeft=4;spacingRight=4;overflow=hidden;rotatable=0;points=[[0,0.5],[1,0.5]];portConstraint=eastwest;fillColor=#f8cecc;strokeColor=#b85450;spacing=0;fontSize=22;spacingTop=0;" parent="uZuDazkK_sFw4VfwLlh1-1" vertex="1">
          <mxGeometry width="200" height="40" as="geometry" />
        </mxCell>
        <mxCell id="G63lVBj6vxxuwlLdZVwU-21" value="{&#xa;static Parent blocks&#xa;}" style="text;align=left;verticalAlign=middle;spacingLeft=4;spacingRight=4;overflow=hidden;rotatable=0;points=[[0,0.5],[1,0.5]];portConstraint=eastwest;fillColor=#f8cecc;strokeColor=#b85450;expand=1;autosize=0;resizeHeight=0;resizeWidth=0;spacing=0;fontSize=22;spacingTop=0;" parent="uZuDazkK_sFw4VfwLlh1-1" vertex="1">
          <mxGeometry y="40" width="200" height="100" as="geometry" />
        </mxCell>
        <mxCell id="G63lVBj6vxxuwlLdZVwU-25" value="static Child fields" style="text;align=left;verticalAlign=middle;spacingLeft=4;spacingRight=4;overflow=hidden;rotatable=0;points=[[0,0.5],[1,0.5]];portConstraint=eastwest;fillColor=#d5e8d4;strokeColor=#82b366;spacing=0;fontSize=22;spacingTop=0;" parent="uZuDazkK_sFw4VfwLlh1-1" vertex="1">
          <mxGeometry y="140" width="200" height="40" as="geometry" />
        </mxCell>
        <mxCell id="G63lVBj6vxxuwlLdZVwU-26" value="{&#xa;static Child blocks&#xa;}" style="text;align=left;verticalAlign=middle;spacingLeft=4;spacingRight=4;overflow=hidden;rotatable=0;points=[[0,0.5],[1,0.5]];portConstraint=eastwest;fillColor=#d5e8d4;strokeColor=#82b366;spacing=0;fontSize=22;spacingTop=0;" parent="uZuDazkK_sFw4VfwLlh1-1" vertex="1">
          <mxGeometry y="180" width="200" height="100" as="geometry" />
        </mxCell>
        <mxCell id="uZuDazkK_sFw4VfwLlh1-2" value="" style="swimlane;startSize=0;fontSize=22;fillColor=none;strokeColor=none;" parent="WIyWlLk6GJQsqaUBKTNV-1" vertex="1">
          <mxGeometry x="150" y="710" width="250" height="360" as="geometry" />
        </mxCell>
        <mxCell id="G63lVBj6vxxuwlLdZVwU-29" value="{&lt;br style=&quot;font-size: 22px;&quot;&gt;non-static Parent blocks&lt;br style=&quot;font-size: 22px;&quot;&gt;}" style="text;html=1;strokeColor=#b85450;fillColor=#f8cecc;align=left;verticalAlign=middle;whiteSpace=wrap;rounded=0;spacingLeft=4;spacingRight=4;spacingTop=0;spacing=0;fontSize=22;" parent="uZuDazkK_sFw4VfwLlh1-2" vertex="1">
          <mxGeometry y="40" width="250" height="100" as="geometry" />
        </mxCell>
        <mxCell id="G63lVBj6vxxuwlLdZVwU-30" value="Parent constructor() {}" style="text;html=1;strokeColor=#b85450;fillColor=#f8cecc;align=left;verticalAlign=middle;whiteSpace=wrap;rounded=0;spacingLeft=4;spacingRight=4;spacing=0;fontSize=22;spacingTop=0;" parent="uZuDazkK_sFw4VfwLlh1-2" vertex="1">
          <mxGeometry y="140" width="250" height="40" as="geometry" />
        </mxCell>
        <mxCell id="G63lVBj6vxxuwlLdZVwU-31" value="non-static Child fields" style="text;align=left;verticalAlign=middle;spacingLeft=4;spacingRight=4;overflow=hidden;rotatable=0;points=[[0,0.5],[1,0.5]];portConstraint=eastwest;rounded=0;shadow=0;html=0;spacing=0;fillColor=#d5e8d4;strokeColor=#82b366;fontSize=22;spacingTop=0;" parent="uZuDazkK_sFw4VfwLlh1-2" vertex="1">
          <mxGeometry y="180" width="250" height="40" as="geometry" />
        </mxCell>
        <mxCell id="G63lVBj6vxxuwlLdZVwU-32" value="{&lt;br style=&quot;font-size: 22px;&quot;&gt;non-static Child blocks&lt;br style=&quot;font-size: 22px;&quot;&gt;}" style="text;html=1;strokeColor=#82b366;fillColor=#d5e8d4;align=left;verticalAlign=middle;whiteSpace=wrap;rounded=0;spacingLeft=4;spacingRight=4;spacingTop=0;spacing=0;fontSize=22;" parent="uZuDazkK_sFw4VfwLlh1-2" vertex="1">
          <mxGeometry y="220" width="250" height="100" as="geometry" />
        </mxCell>
        <mxCell id="G63lVBj6vxxuwlLdZVwU-33" value="Child constructor() {}" style="text;html=1;strokeColor=#82b366;fillColor=#d5e8d4;align=left;verticalAlign=middle;whiteSpace=wrap;rounded=0;spacingLeft=4;spacingRight=4;spacing=0;fontSize=22;spacingTop=0;" parent="uZuDazkK_sFw4VfwLlh1-2" vertex="1">
          <mxGeometry y="320" width="250" height="40" as="geometry" />
        </mxCell>
        <mxCell id="G63lVBj6vxxuwlLdZVwU-27" value="non-static Parent fields" style="text;align=left;verticalAlign=middle;spacingLeft=4;spacingRight=4;overflow=hidden;rotatable=0;points=[[0,0.5],[1,0.5]];portConstraint=eastwest;rounded=0;shadow=0;html=0;spacing=0;fillColor=#f8cecc;strokeColor=#b85450;fontSize=22;spacingTop=0;" parent="uZuDazkK_sFw4VfwLlh1-2" vertex="1">
          <mxGeometry width="250" height="40" as="geometry" />
        </mxCell>
        <mxCell id="uZuDazkK_sFw4VfwLlh1-3" value="" style="endArrow=classic;html=1;rounded=0;fontSize=22;exitX=0.279;exitY=1;exitDx=0;exitDy=0;exitPerimeter=0;entryX=0.5;entryY=0;entryDx=0;entryDy=0;" parent="WIyWlLk6GJQsqaUBKTNV-1" source="uZuDazkK_sFw4VfwLlh1-0" target="uZuDazkK_sFw4VfwLlh1-1" edge="1">
          <mxGeometry relative="1" as="geometry">
            <mxPoint x="400" y="240" as="sourcePoint" />
            <mxPoint x="170" y="280" as="targetPoint" />
          </mxGeometry>
        </mxCell>
        <mxCell id="uZuDazkK_sFw4VfwLlh1-4" value="classes are&lt;br&gt;not loaded" style="edgeLabel;resizable=0;html=1;align=center;verticalAlign=middle;fontSize=22;strokeColor=default;fillColor=none;fontColor=#FF0000;" parent="uZuDazkK_sFw4VfwLlh1-3" connectable="0" vertex="1">
          <mxGeometry relative="1" as="geometry" />
        </mxCell>
        <mxCell id="uZuDazkK_sFw4VfwLlh1-5" value="classes are&lt;br&gt;loaded" style="endArrow=classic;html=1;rounded=0;fontSize=22;entryX=0.75;entryY=0;entryDx=0;entryDy=0;exitX=0.838;exitY=1.019;exitDx=0;exitDy=0;exitPerimeter=0;fontColor=#009900;" parent="WIyWlLk6GJQsqaUBKTNV-1" source="uZuDazkK_sFw4VfwLlh1-0" target="uZuDazkK_sFw4VfwLlh1-2" edge="1">
          <mxGeometry relative="1" as="geometry">
            <mxPoint x="400" y="660" as="sourcePoint" />
            <mxPoint x="500" y="660" as="targetPoint" />
          </mxGeometry>
        </mxCell>
        <mxCell id="uZuDazkK_sFw4VfwLlh1-8" value="" style="endArrow=classic;html=1;rounded=0;fontSize=22;exitX=0.75;exitY=1;exitDx=0;exitDy=0;entryX=0.16;entryY=-0.001;entryDx=0;entryDy=0;entryPerimeter=0;" parent="WIyWlLk6GJQsqaUBKTNV-1" source="uZuDazkK_sFw4VfwLlh1-1" target="uZuDazkK_sFw4VfwLlh1-2" edge="1">
          <mxGeometry width="50" height="50" relative="1" as="geometry">
            <mxPoint x="430" y="780" as="sourcePoint" />
            <mxPoint x="260" y="680" as="targetPoint" />
          </mxGeometry>
        </mxCell>
      </root>
    </mxGraphModel>
  </diagram>
</mxfile>
